# xmcd
#
# Track frame offsets: 
#        150
#        12937
#        26287
#        39300
#        53695
#        64502
#        78744
#        91322
#        105550
#        117765
#        131513
#        142042
#        155152
#        169568
#        183481
#        196150
#        208870
#        221963
#        234650
#        248523
#        263961
#        275700
#        289200
#        303112
#        316226
#
# Disc length: 4387 seconds
#
# Revision: 0
# Processed by: cddbd v1.5.2PL0 Copyright (c) Steve Scherf et al.
# Submitted via: ExactAudioCopy v0.99pb3
#
DISCID=64112119
DTITLE=Various Artist - Marches of III Reich cd2
DYEAR=2009
DGENRE=Musical
TTITLE0=Marsch der Gebirgsjager
TTITLE1=Parademarsch der Legion Condor
TTITLE2=Hannelore
TTITLE3=Die Fahne hoch (Heer arr.)
TTITLE4=Unterseeboot Lied
TTITLE5=Panzer Rollen in Afrika Vor
TTITLE6=Bomben auf England (Luftwaffe arr.)
TTITLE7=Gegen Briten und Franzosen
TTITLE8=Marschlied der Propaganda-Kompanier
TTITLE9=Lufthansamarsch
TTITLE10=Warte Mein Madel Dort in der Heimat
TTITLE11=Erika (Luftwaffe arr.)
TTITLE12=Der Fuhrer hat Gerufen
TTITLE13=Gutte Nacht Mutter!
TTITLE14=Parademarsch der Langen Kerls
TTITLE15=Jawoll, das Stimmt Jawoll!
TTITLE16=Schwarzbraun ist die Haselnuss
TTITLE17=Rosmarie
TTITLE18=Steiger-Marsch
TTITLE19=Es blueht ein Blumelein
TTITLE20=Ich Geh' auf Gross Fahrt, Marie
TTITLE21=Das E - Boot Lied (Ritter der Nordsee)
TTITLE22=Panzer Marsch
TTITLE23=Der Tod in Flandern
TTITLE24=Ruck-Zuck!
EXTD=
EXTT0=
EXTT1=
EXTT2=
EXTT3=
EXTT4=
EXTT5=
EXTT6=
EXTT7=
EXTT8=
EXTT9=
EXTT10=
EXTT11=
EXTT12=
EXTT13=
EXTT14=
EXTT15=
EXTT16=
EXTT17=
EXTT18=
EXTT19=
EXTT20=
EXTT21=
EXTT22=
EXTT23=
EXTT24=
PLAYORDER=
